<svg width="7" height="7" viewBox="0 0 7 7" fill="none" xmlns="http://www.w3.org/2000/svg">
<g clip-path="url(#clip0_201_16013)">
<path d="M1.94369 3.33237H2.49903V3.88771H1.94369V3.33237ZM5.83108 1.66635V5.55374C5.83108 5.70102 5.77257 5.84227 5.66842 5.94642C5.56428 6.05057 5.42302 6.10908 5.27574 6.10908H1.38835C1.08013 6.10908 0.833008 5.85917 0.833008 5.55374V1.66635C0.833008 1.51906 0.891517 1.37781 0.995663 1.27366C1.09981 1.16951 1.24106 1.11101 1.38835 1.11101H1.66602V0.555664H2.22136V1.11101H4.44273V0.555664H4.99807V1.11101H5.27574C5.42302 1.11101 5.56428 1.16951 5.66842 1.27366C5.77257 1.37781 5.83108 1.51906 5.83108 1.66635ZM1.38835 2.22169H5.27574V1.66635H1.38835V2.22169ZM5.27574 5.55374V2.77703H1.38835V5.55374H5.27574ZM4.16506 3.88771V3.33237H4.7204V3.88771H4.16506ZM3.05437 3.88771V3.33237H3.60971V3.88771H3.05437ZM1.94369 4.44305H2.49903V4.99839H1.94369V4.44305ZM4.16506 4.99839V4.44305H4.7204V4.99839H4.16506ZM3.05437 4.99839V4.44305H3.60971V4.99839H3.05437Z" fill="black"/>
</g>
<defs>
<clipPath id="clip0_201_16013">
<rect width="6.6641" height="6.6641" fill="white"/>
</clipPath>
</defs>
</svg>
